<svg id="Layer_1" data-name="Layer 1" xmlns="http://www.w3.org/2000/svg" xmlns:xlink="http://www.w3.org/1999/xlink" viewBox="0 0 1952.49 1130.1"><defs><style>.cls-1{stroke:#000;stroke-miterlimit:10;fill:url(#linear-gradient);}</style><linearGradient id="linear-gradient" x1="1288.03" y1="334.45" x2="248.79" y2="1100.2" gradientUnits="userSpaceOnUse"><stop offset="0" stop-color="#00ff09"/><stop offset="0.09" stop-color="#00e514"/><stop offset="0.34" stop-color="#00a032"/><stop offset="0.56" stop-color="#00694a"/><stop offset="0.75" stop-color="#00425c"/><stop offset="0.91" stop-color="#002a66"/><stop offset="1" stop-color="#00216a"/></linearGradient></defs><path class="cls-1" d="M218.52,1032.77c68,0,127,41.81,196.52,35.81,40.45-3.49,78.36-20.66,118-29.41A289.11,289.11,0,0,1,694.2,1050.1c24.22,8.92,47.87,21.25,73.64,22.8,32.11,1.94,62.43-13.06,92.94-23.28a325.67,325.67,0,0,1,209.74,1.62c27,9.5,53.79,22.79,82.4,22,25.54-.72,49.2-12.63,73.19-21.43a316,316,0,0,1,205.14-3.71c32.77,10.7,65.37,27.05,99.71,24,21.65-1.92,41.74-11.47,62.18-18.88A322,322,0,0,1,1707.69,1034c87.93,1.17,173.25,37.3,240,95.14h3.82V390.78s-180.82-152.89-550.6-152.89S975.74,0,975.74,0H0V1103.62A370.56,370.56,0,0,1,218.52,1032.77Z" transform="translate(0.5 0.5)"/></svg>