<svg id="Layer_1" data-name="Layer 1" xmlns="http://www.w3.org/2000/svg" xmlns:xlink="http://www.w3.org/1999/xlink" viewBox="0 0 2511.57 1547.68"><defs><style>.cls-1,.cls-3{stroke:#000;stroke-miterlimit:10;}.cls-1{fill:url(#linear-gradient);}.cls-2{fill:#fff;}.cls-3{fill:none;}</style><linearGradient id="linear-gradient" x1="-139.47" y1="722.99" x2="2371.1" y2="722.99" gradientUnits="userSpaceOnUse"><stop offset="0" stop-color="#6441a4"/><stop offset="0.19" stop-color="#6b4ba8"/><stop offset="0.5" stop-color="#7e65b4"/><stop offset="0.91" stop-color="#9e90c6"/><stop offset="0.99" stop-color="#a499ca"/></linearGradient></defs><path class="cls-1" d="M-.5-.5c-51.07,112.57-259.81,603-41,1005,337.16,619.44,1500.43,642,2034,134,331-315.15,488-897.11,294-1095-135.9-138.66-440-84.58-477-78-279,49.6-377.34,228.17-585,202-127.7-16.09-223-100.32-283-168" transform="translate(139.97 50.85)"/><circle class="cls-2" cx="295.94" cy="306.93" r="188.46" transform="translate(9.61 350.01) rotate(-45)"/><circle class="cls-3" cx="295.94" cy="306.93" r="188.46" transform="translate(9.61 350.01) rotate(-45)"/><circle class="cls-2" cx="561.25" cy="584" r="151.25" transform="translate(-108.6 618.77) rotate(-45)"/><circle class="cls-3" cx="561.25" cy="584" r="151.25" transform="translate(-108.6 618.77) rotate(-45)"/><circle class="cls-2" cx="803.15" cy="765.13" r="110.35" transform="translate(-165.82 842.86) rotate(-45)"/><circle class="cls-3" cx="803.15" cy="765.13" r="110.35" transform="translate(-165.82 842.86) rotate(-45)"/><circle class="cls-2" cx="999.38" cy="915.06" r="99.12" transform="translate(-214.36 1025.53) rotate(-45)"/><circle class="cls-3" cx="999.38" cy="915.06" r="99.12" transform="translate(-214.36 1025.53) rotate(-45)"/><circle class="cls-2" cx="1182.72" cy="1038.74" r="84.48" transform="translate(-248.12 1191.4) rotate(-45)"/><circle class="cls-3" cx="1182.72" cy="1038.74" r="84.48" transform="translate(-248.12 1191.4) rotate(-45)"/></svg>